<?xml version="1.0" encoding="UTF-8" standalone="no"?>
<!DOCTYPE svg PUBLIC "-//W3C//DTD SVG 1.1//EN" "http://www.w3.org/Graphics/SVG/1.1/DTD/svg11.dtd">
<svg width="100%" height="100%" viewBox="0 0 574 100" version="1.1" xmlns="http://www.w3.org/2000/svg" xmlns:xlink="http://www.w3.org/1999/xlink" xml:space="preserve" xmlns:serif="http://www.serif.com/" style="fill-rule:evenodd;clip-rule:evenodd;stroke-linecap:round;stroke-linejoin:round;stroke-miterlimit:1.5;">
    <g transform="matrix(1,0,0,1,-225.283,-652.793)">
        <g transform="matrix(1,0,0,1,-9.63496e-12,481.09)">
            <g transform="matrix(1,0,0,0.892015,132.615,-25.8153)">
                <g transform="matrix(150.52,0,0,150.52,215.849,305.72)">
                    <path d="M0.019,0.18L0.135,-0.55L0.225,-0.55L0.208,-0.445L0.21,-0.445C0.22,-0.481 0.24,-0.509 0.271,-0.53C0.301,-0.55 0.337,-0.56 0.378,-0.56C0.433,-0.56 0.474,-0.542 0.5,-0.506C0.526,-0.469 0.534,-0.419 0.524,-0.356L0.499,-0.195C0.489,-0.132 0.465,-0.082 0.427,-0.045C0.389,-0.008 0.342,0.01 0.287,0.01C0.246,0.01 0.213,-0 0.19,-0.021C0.166,-0.042 0.155,-0.07 0.156,-0.105L0.153,-0.105L0.135,0.02L0.109,0.18L0.019,0.18ZM0.27,-0.068C0.308,-0.068 0.339,-0.079 0.364,-0.102C0.388,-0.125 0.403,-0.157 0.41,-0.2L0.433,-0.35C0.44,-0.393 0.435,-0.425 0.418,-0.448C0.401,-0.471 0.373,-0.482 0.335,-0.482C0.298,-0.482 0.267,-0.47 0.242,-0.447C0.217,-0.424 0.2,-0.391 0.193,-0.35L0.17,-0.2C0.163,-0.159 0.169,-0.126 0.188,-0.103C0.206,-0.08 0.233,-0.068 0.27,-0.068Z" style="fill:white;fill-rule:nonzero;"/>
                </g>
                <g transform="matrix(150.52,0,0,150.52,307.666,305.72)">
                    <path d="M0.223,0.01C0.168,0.01 0.128,-0.008 0.101,-0.045C0.074,-0.082 0.066,-0.131 0.076,-0.194L0.101,-0.355C0.111,-0.418 0.135,-0.468 0.174,-0.505C0.212,-0.542 0.259,-0.56 0.314,-0.56C0.355,-0.56 0.388,-0.55 0.411,-0.529C0.434,-0.508 0.445,-0.48 0.444,-0.445L0.447,-0.445L0.462,-0.55L0.552,-0.55L0.465,-0L0.375,-0L0.392,-0.105L0.39,-0.105C0.38,-0.069 0.36,-0.041 0.33,-0.021C0.3,-0 0.264,0.01 0.223,0.01ZM0.266,-0.068C0.303,-0.068 0.335,-0.08 0.36,-0.103C0.385,-0.126 0.4,-0.159 0.407,-0.2L0.43,-0.35C0.437,-0.391 0.431,-0.424 0.414,-0.447C0.396,-0.47 0.368,-0.482 0.331,-0.482C0.293,-0.482 0.262,-0.471 0.237,-0.448C0.212,-0.425 0.197,-0.393 0.19,-0.35L0.167,-0.2C0.16,-0.157 0.166,-0.125 0.183,-0.102C0.2,-0.079 0.228,-0.068 0.266,-0.068Z" style="fill:white;fill-rule:nonzero;"/>
                </g>
                <g transform="matrix(150.52,0,0,150.52,399.483,305.72)">
                    <path d="M0.258,0.01C0.191,0.01 0.142,-0.009 0.109,-0.046C0.076,-0.083 0.065,-0.135 0.076,-0.2L0.099,-0.35C0.11,-0.415 0.137,-0.467 0.182,-0.504C0.227,-0.541 0.282,-0.56 0.349,-0.56C0.412,-0.56 0.461,-0.543 0.494,-0.509C0.527,-0.475 0.54,-0.429 0.533,-0.37L0.443,-0.37C0.446,-0.405 0.439,-0.432 0.42,-0.452C0.401,-0.47 0.373,-0.48 0.336,-0.48C0.297,-0.48 0.264,-0.469 0.239,-0.447C0.213,-0.424 0.197,-0.392 0.19,-0.351L0.166,-0.2C0.159,-0.159 0.165,-0.127 0.184,-0.104C0.203,-0.081 0.232,-0.07 0.271,-0.07C0.308,-0.07 0.339,-0.08 0.364,-0.099C0.389,-0.118 0.405,-0.145 0.413,-0.18L0.503,-0.18C0.492,-0.121 0.464,-0.075 0.42,-0.041C0.375,-0.007 0.321,0.01 0.258,0.01Z" style="fill:white;fill-rule:nonzero;"/>
                </g>
                <g transform="matrix(150.52,0,0,150.52,491.3,305.72)">
                    <path d="M0.254,0.01C0.189,0.01 0.141,-0.009 0.109,-0.048C0.077,-0.086 0.066,-0.137 0.076,-0.2L0.099,-0.35C0.106,-0.393 0.121,-0.43 0.144,-0.461C0.166,-0.492 0.194,-0.517 0.229,-0.534C0.263,-0.551 0.302,-0.56 0.345,-0.56C0.41,-0.56 0.459,-0.541 0.491,-0.503C0.523,-0.464 0.534,-0.413 0.523,-0.35L0.508,-0.253L0.172,-0.253L0.164,-0.2C0.157,-0.157 0.163,-0.124 0.18,-0.101C0.197,-0.078 0.225,-0.066 0.266,-0.066C0.336,-0.066 0.38,-0.091 0.398,-0.14L0.488,-0.14C0.475,-0.094 0.448,-0.058 0.405,-0.031C0.362,-0.003 0.312,0.01 0.254,0.01ZM0.183,-0.321L0.431,-0.321L0.435,-0.35C0.442,-0.393 0.438,-0.427 0.421,-0.45C0.404,-0.473 0.374,-0.485 0.333,-0.485C0.292,-0.485 0.26,-0.473 0.235,-0.45C0.21,-0.427 0.194,-0.393 0.187,-0.35L0.183,-0.321Z" style="fill:white;fill-rule:nonzero;"/>
                </g>
                <g transform="matrix(150.52,0,0,150.52,583.117,305.72)">
                    <path d="M0.067,-0L0.154,-0.55L0.242,-0.55L0.226,-0.45C0.255,-0.523 0.31,-0.56 0.389,-0.56C0.447,-0.56 0.49,-0.542 0.519,-0.506C0.547,-0.469 0.556,-0.42 0.547,-0.358L0.541,-0.325L0.451,-0.325L0.455,-0.35C0.462,-0.393 0.457,-0.427 0.44,-0.45C0.423,-0.472 0.395,-0.484 0.356,-0.484C0.318,-0.484 0.286,-0.472 0.261,-0.449C0.236,-0.426 0.219,-0.393 0.212,-0.35L0.157,-0L0.067,-0Z" style="fill:white;fill-rule:nonzero;"/>
                </g>
            </g>
            <g transform="matrix(0.254291,0,0,0.2574,186.154,147.374)">
                <g transform="matrix(0.805999,0.127658,-0.144601,0.912977,255.546,-44.2677)">
                    <path d="M179.159,135.395L179.159,548.898L117.888,557.465L117.888,143.962L179.159,135.395Z" style="fill:white;stroke:black;stroke-width:1.23px;"/>
                </g>
                <g transform="matrix(4.99684e-17,-0.816046,0.37061,2.26933e-17,358.796,248.418)">
                    <path d="M179.159,112.257L179.159,442.378C179.159,517.799 151.727,578.94 117.888,578.94C117.888,578.94 117.888,578.94 117.888,578.94L117.888,112.257L179.159,112.257Z" style="fill:white;stroke:black;stroke-width:1.58px;"/>
                </g>
                <g transform="matrix(4.99684e-17,-0.816046,0.413531,2.53215e-17,333.947,448.471)">
                    <path d="M179.159,112.257L179.159,578.94L179.158,578.94C162.908,578.94 147.324,566.045 135.833,543.093C124.343,520.141 117.888,489.011 117.888,456.552C117.888,318.28 117.888,112.257 117.888,112.257L179.159,112.257Z" style="fill:white;stroke:black;stroke-width:1.58px;"/>
                </g>
                <g transform="matrix(4.99684e-17,-0.816046,0.194034,1.18811e-17,461.023,348.399)">
                    <rect x="117.888" y="112.257" width="61.271" height="466.683" style="fill:white;stroke:black;stroke-width:1.69px;"/>
                </g>
                <g transform="matrix(4.99684e-17,0.816046,0.194034,-1.18811e-17,132.599,333.533)">
                    <path d="M117.888,112.257C134.138,112.257 149.722,139.738 161.213,188.655C172.703,237.571 179.159,303.916 179.159,373.095C179.159,479.915 179.159,578.94 179.159,578.94L117.888,578.94L117.888,112.257L117.888,112.257Z" style="fill:white;stroke:black;stroke-width:1.69px;"/>
                </g>
            </g>
        </g>
    </g>
</svg>
